<svg xmlns="http://www.w3.org/2000/svg" version="1.1" xmlns:xlink="http://www.w3.org/1999/xlink" width="200" height="200"><svg xmlns="http://www.w3.org/2000/svg" version="1.1" xmlns:xlink="http://www.w3.org/1999/xlink" viewBox="0 0 200 200"><rect width="200" height="200" fill="url('#gradient')"></rect><defs><linearGradient id="SvgjsLinearGradient1009" gradientTransform="rotate(160 0.5 0.5)"><stop offset="0%" stop-color="#ffffff"></stop><stop offset="100%" stop-color="#ffffff"></stop></linearGradient></defs><g><g fill="#0059c1" transform="matrix(2.7495205216724203,0,0,2.7495205216724203,27.052015608052983,119.53971750561561)" stroke="#0059c1" stroke-width="0"><path d="M12.95-14.22L12.95 0L9.54 0L4.50-8.85L4.50 0L1.07 0L1.07-14.22L4.50-14.22L9.53-5.37L9.53-14.22L12.95-14.22ZM23.94-8.57L23.94-6.03L18.54-6.03L18.54-2.64L24.91-2.64L24.91 0L15.12 0L15.12-14.22L24.93-14.22L24.93-11.57L18.54-11.57L18.54-8.57L23.94-8.57ZM38.35-7.47L38.35-6.82Q38.35-4.74 37.58-3.13Q36.81-1.53 35.39-0.67Q33.96 0.20 32.15 0.20Q30.33 0.20 28.93-0.64Q27.52-1.47 26.73-3.03Q25.95-4.58 25.91-6.59L25.91-6.59L25.91-7.39Q25.91-9.48 26.67-11.08Q27.44-12.68 28.87-13.54Q30.30-14.41 32.13-14.41L32.13-14.41Q33.94-14.41 35.35-13.55Q36.77-12.70 37.55-11.11Q38.34-9.52 38.35-7.47L38.35-7.47ZM34.86-6.76L34.86-7.41Q34.86-9.53 34.16-10.63Q33.45-11.73 32.13-11.73L32.13-11.73Q29.55-11.73 29.40-7.86L29.40-7.86L29.39-6.82Q29.39-4.73 30.09-3.60Q30.78-2.48 32.15-2.48L32.15-2.48Q33.45-2.48 34.15-3.58Q34.85-4.69 34.86-6.76L34.86-6.76ZM51.99-14.22L51.99 0L48.58 0L43.54-8.85L43.54 0L40.12 0L40.12-14.22L43.54-14.22L48.57-5.37L48.57-14.22L51.99-14.22Z"></path></g></g></svg><style>@media (prefers-color-scheme: light) { :root { filter: none; } }
@media (prefers-color-scheme: dark) { :root { filter: none; } }
</style></svg>